<svg width="95" height="13" viewBox="0 0 95 13" fill="none" xmlns="http://www.w3.org/2000/svg">
<path d="M16.1537 3.44133H15.4568V9.71397H16.1537V12H10.8847V9.71397H11.5538V4.83525L9.18412 12H7.12112L4.68176 4.90495V9.71397H5.35084V12H0.778784V9.71397H1.47574V3.44133H0.778784V1.1553H7.16294L8.61262 5.50433L10.0065 1.1553H16.1537V3.44133ZM26.9368 9.71397H27.4944V12H22.0302V9.71397H22.8665L22.6435 8.59883H20.7478L20.5248 9.71397H21.3611V12H16.5939V9.71397H17.1515L19.5072 1.1553H24.5811L26.9368 9.71397ZM21.0544 7.12128H22.3369L21.7653 4.34738H21.626L21.0544 7.12128ZM38.1671 9.71397H38.7247V12H33.2605V9.71397H34.0969L33.8738 8.59883H31.9781L31.7551 9.71397H32.5914V12H27.8242V9.71397H28.3818L30.7375 1.1553H35.8114L38.1671 9.71397ZM32.2848 7.12128H33.5672L32.9957 4.34738H32.8563L32.2848 7.12128ZM43.4823 1.1553H48.138V3.44133H47.5804L45.0853 12H40.569L38.0739 3.44133H37.5163V1.1553H42.869V3.44133H42.1441L43.1059 8.11096H43.2453L44.2071 3.44133H43.4823V1.1553Z" fill="#FC4F4F"/>
<path d="M57.0861 12.1951C56.194 12.1951 55.3483 12.1208 54.5491 11.9721C53.7593 11.8141 53.1506 11.6376 52.7231 11.4424V8.68247H55.7897C55.7897 8.97055 55.8548 9.17963 55.9849 9.30973C56.115 9.43983 56.352 9.50488 56.6958 9.50488C56.9839 9.50488 57.1883 9.46307 57.3091 9.37943C57.4392 9.2865 57.5043 9.15176 57.5043 8.97519C57.5043 8.82651 57.4439 8.70106 57.323 8.59883C57.2022 8.48732 56.9932 8.37581 56.6958 8.26429L55.497 7.84612C54.4655 7.45582 53.7221 6.99583 53.2667 6.46614C52.8207 5.93645 52.5977 5.2209 52.5977 4.3195C52.5977 3.22295 52.9554 2.39124 53.671 1.82438C54.3958 1.24823 55.5992 0.960151 57.2812 0.960151C58.0897 0.960151 58.8471 1.04379 59.5533 1.21106C60.2689 1.36903 60.845 1.58277 61.2818 1.85226V4.34738H58.4939C58.4939 3.88274 58.2059 3.65042 57.6297 3.65042C57.3509 3.65042 57.1511 3.68759 57.0303 3.76193C56.9188 3.82698 56.8631 3.94779 56.8631 4.12435C56.8631 4.28233 56.9281 4.40778 57.0582 4.50071C57.1976 4.59364 57.4206 4.69121 57.7273 4.79343L58.94 5.21161C59.925 5.54615 60.6406 5.98291 61.0866 6.52189C61.542 7.05158 61.7697 7.74854 61.7697 8.61277C61.7697 9.79296 61.3701 10.6851 60.5709 11.2891C59.781 11.8931 58.6194 12.1951 57.0861 12.1951ZM66.2975 12.1951C64.9686 12.1951 63.9325 11.8513 63.1891 11.1636C62.4456 10.4667 62.0739 9.45377 62.0739 8.1249C62.0739 6.79603 62.4456 5.78776 63.1891 5.10009C63.9325 4.40313 64.964 4.05465 66.2836 4.05465C66.9248 4.05465 67.5381 4.14294 68.1235 4.3195C68.709 4.49606 69.1643 4.69586 69.4896 4.91889V7.67885H67.092V7.42794C67.092 7.12128 67.027 6.89825 66.8969 6.75886C66.7668 6.61017 66.5623 6.53583 66.2836 6.53583C65.7446 6.53583 65.4751 6.8332 65.4751 7.42794V8.62671C65.4751 9.35155 65.8886 9.71397 66.7157 9.71397C67.487 9.71397 68.3837 9.63034 69.4059 9.46307V11.6515C69.09 11.7909 68.6439 11.9164 68.0678 12.0279C67.5009 12.1394 66.9108 12.1951 66.2975 12.1951ZM74.1108 12.1951C72.7912 12.1951 71.7597 11.8513 71.0162 11.1636C70.2728 10.4667 69.9011 9.45377 69.9011 8.1249C69.9011 6.79603 70.2728 5.78776 71.0162 5.10009C71.7597 4.40313 72.7912 4.05465 74.1108 4.05465C75.4489 4.05465 76.4851 4.40778 77.2192 5.11403C77.9533 5.81099 78.3204 6.81462 78.3204 8.1249C78.3204 9.45377 77.9487 10.4667 77.2053 11.1636C76.4618 11.8513 75.4303 12.1951 74.1108 12.1951ZM74.1108 9.71397C74.3802 9.71397 74.58 9.64427 74.7101 9.50488C74.8495 9.3562 74.9192 9.12852 74.9192 8.82186V7.42794C74.9192 7.12128 74.8495 6.89825 74.7101 6.75886C74.58 6.61017 74.3802 6.53583 74.1108 6.53583C73.8413 6.53583 73.6368 6.61017 73.4974 6.75886C73.3673 6.89825 73.3023 7.12128 73.3023 7.42794V8.82186C73.3023 9.12852 73.3673 9.3562 73.4974 9.50488C73.6368 9.64427 73.8413 9.71397 74.1108 9.71397ZM87.9362 9.71397V12H84.1168V10.9127C83.4477 11.7677 82.6114 12.1951 81.6078 12.1951C80.8365 12.1951 80.2557 11.9535 79.8654 11.4703C79.4844 10.9871 79.2938 10.3226 79.2938 9.477V6.53583H78.6805V4.2498H82.4999V8.82186C82.4999 9.12852 82.5649 9.3562 82.695 9.50488C82.8344 9.64427 83.0388 9.71397 83.3083 9.71397C83.5778 9.71397 83.7776 9.64427 83.9077 9.50488C84.0471 9.3562 84.1168 9.12852 84.1168 8.82186V6.53583H83.3641V4.2498H87.3228V9.71397H87.9362ZM91.7631 12.1951C90.7781 12.1951 90.0347 11.9582 89.5328 11.4842C89.0403 11.001 88.7941 10.1926 88.7941 9.05883V6.53583H88.1807V4.2498C88.5339 4.2498 88.7987 4.16152 88.9753 3.98496C89.1518 3.7991 89.2401 3.5482 89.2401 3.23224V2.60498H92.1952V4.2498H94.077V6.53583H92.1952V8.82186C92.1952 9.12852 92.2603 9.3562 92.3904 9.50488C92.5298 9.64427 92.7342 9.71397 93.0037 9.71397C93.3568 9.71397 93.7425 9.67215 94.1607 9.58852V11.777C93.9005 11.8792 93.5473 11.9721 93.1013 12.0558C92.6645 12.1487 92.2185 12.1951 91.7631 12.1951Z" fill="#030812"/>
</svg>
